<mxfile host="app.diagrams.net" modified="2022-05-26T00:58:09.181Z" agent="5.0 (Macintosh; Intel Mac OS X 10_15_7) AppleWebKit/537.36 (KHTML, like Gecko) Chrome/101.0.4951.64 Safari/537.36" etag="SowokjsndpAVyLPlF3kF" version="18.1.2" type="github">
  <diagram id="QycKrKwwTOAYzCEMjUwN" name="Page-1">
    <mxGraphModel dx="881" dy="1851" grid="1" gridSize="10" guides="1" tooltips="1" connect="1" arrows="1" fold="1" page="1" pageScale="1" pageWidth="850" pageHeight="1100" math="0" shadow="0">
      <root>
        <mxCell id="0" />
        <mxCell id="1" parent="0" />
        <mxCell id="utd212D--XBg9ADIICOr-1" value="D1" style="rounded=0;whiteSpace=wrap;html=1;" vertex="1" parent="1">
          <mxGeometry x="20" y="-650" width="120" height="30" as="geometry" />
        </mxCell>
        <mxCell id="utd212D--XBg9ADIICOr-28" style="edgeStyle=orthogonalEdgeStyle;rounded=0;orthogonalLoop=1;jettySize=auto;html=1;exitX=0;exitY=0.5;exitDx=0;exitDy=0;entryX=1;entryY=0.5;entryDx=0;entryDy=0;" edge="1" parent="1" source="utd212D--XBg9ADIICOr-2" target="utd212D--XBg9ADIICOr-1">
          <mxGeometry relative="1" as="geometry" />
        </mxCell>
        <mxCell id="utd212D--XBg9ADIICOr-40" value="" style="edgeStyle=none;rounded=0;orthogonalLoop=1;jettySize=auto;html=1;" edge="1" parent="1" source="utd212D--XBg9ADIICOr-2" target="utd212D--XBg9ADIICOr-1">
          <mxGeometry relative="1" as="geometry" />
        </mxCell>
        <mxCell id="utd212D--XBg9ADIICOr-2" value="D2.1" style="rounded=0;whiteSpace=wrap;html=1;" vertex="1" parent="1">
          <mxGeometry x="170" y="-650" width="120" height="30" as="geometry" />
        </mxCell>
        <mxCell id="utd212D--XBg9ADIICOr-29" style="rounded=0;orthogonalLoop=1;jettySize=auto;html=1;exitX=0;exitY=0.5;exitDx=0;exitDy=0;entryX=1;entryY=0.5;entryDx=0;entryDy=0;" edge="1" parent="1" source="utd212D--XBg9ADIICOr-3" target="utd212D--XBg9ADIICOr-1">
          <mxGeometry relative="1" as="geometry" />
        </mxCell>
        <mxCell id="utd212D--XBg9ADIICOr-3" value="D2.2" style="rounded=0;whiteSpace=wrap;html=1;" vertex="1" parent="1">
          <mxGeometry x="170" y="-590" width="120" height="30" as="geometry" />
        </mxCell>
        <mxCell id="utd212D--XBg9ADIICOr-22" style="rounded=0;orthogonalLoop=1;jettySize=auto;html=1;exitX=0;exitY=0.5;exitDx=0;exitDy=0;entryX=1;entryY=0.5;entryDx=0;entryDy=0;" edge="1" parent="1" source="utd212D--XBg9ADIICOr-4" target="utd212D--XBg9ADIICOr-2">
          <mxGeometry relative="1" as="geometry" />
        </mxCell>
        <mxCell id="utd212D--XBg9ADIICOr-4" value="D3.1" style="rounded=0;whiteSpace=wrap;html=1;" vertex="1" parent="1">
          <mxGeometry x="350" y="-650" width="120" height="30" as="geometry" />
        </mxCell>
        <mxCell id="utd212D--XBg9ADIICOr-24" style="rounded=0;orthogonalLoop=1;jettySize=auto;html=1;exitX=0;exitY=0.5;exitDx=0;exitDy=0;entryX=1;entryY=0.5;entryDx=0;entryDy=0;" edge="1" parent="1" source="utd212D--XBg9ADIICOr-5" target="utd212D--XBg9ADIICOr-2">
          <mxGeometry relative="1" as="geometry" />
        </mxCell>
        <mxCell id="utd212D--XBg9ADIICOr-31" value="" style="edgeStyle=orthogonalEdgeStyle;rounded=0;orthogonalLoop=1;jettySize=auto;html=1;" edge="1" parent="1" source="utd212D--XBg9ADIICOr-5" target="utd212D--XBg9ADIICOr-7">
          <mxGeometry relative="1" as="geometry" />
        </mxCell>
        <mxCell id="utd212D--XBg9ADIICOr-5" value="D3.2" style="rounded=0;whiteSpace=wrap;html=1;" vertex="1" parent="1">
          <mxGeometry x="350" y="-590" width="120" height="30" as="geometry" />
        </mxCell>
        <mxCell id="utd212D--XBg9ADIICOr-26" style="rounded=0;orthogonalLoop=1;jettySize=auto;html=1;exitX=0;exitY=0.5;exitDx=0;exitDy=0;" edge="1" parent="1" source="utd212D--XBg9ADIICOr-6">
          <mxGeometry relative="1" as="geometry">
            <mxPoint x="230" y="-560" as="targetPoint" />
          </mxGeometry>
        </mxCell>
        <mxCell id="utd212D--XBg9ADIICOr-6" value="D3.3" style="rounded=0;whiteSpace=wrap;html=1;" vertex="1" parent="1">
          <mxGeometry x="350" y="-530" width="120" height="30" as="geometry" />
        </mxCell>
        <mxCell id="utd212D--XBg9ADIICOr-16" style="rounded=0;orthogonalLoop=1;jettySize=auto;html=1;exitX=0;exitY=0.75;exitDx=0;exitDy=0;entryX=1;entryY=0.5;entryDx=0;entryDy=0;" edge="1" parent="1" source="utd212D--XBg9ADIICOr-7" target="utd212D--XBg9ADIICOr-9">
          <mxGeometry relative="1" as="geometry" />
        </mxCell>
        <mxCell id="utd212D--XBg9ADIICOr-30" style="rounded=0;orthogonalLoop=1;jettySize=auto;html=1;exitX=0;exitY=0.5;exitDx=0;exitDy=0;entryX=0.5;entryY=1;entryDx=0;entryDy=0;" edge="1" parent="1" source="utd212D--XBg9ADIICOr-7" target="utd212D--XBg9ADIICOr-3">
          <mxGeometry relative="1" as="geometry" />
        </mxCell>
        <mxCell id="utd212D--XBg9ADIICOr-7" value="D3.4" style="rounded=0;whiteSpace=wrap;html=1;" vertex="1" parent="1">
          <mxGeometry x="350" y="-470" width="120" height="30" as="geometry" />
        </mxCell>
        <mxCell id="utd212D--XBg9ADIICOr-12" style="edgeStyle=orthogonalEdgeStyle;rounded=0;orthogonalLoop=1;jettySize=auto;html=1;exitX=0;exitY=0.5;exitDx=0;exitDy=0;entryX=1;entryY=0.5;entryDx=0;entryDy=0;" edge="1" parent="1" source="utd212D--XBg9ADIICOr-8" target="utd212D--XBg9ADIICOr-4">
          <mxGeometry relative="1" as="geometry" />
        </mxCell>
        <mxCell id="utd212D--XBg9ADIICOr-13" style="rounded=0;orthogonalLoop=1;jettySize=auto;html=1;exitX=0;exitY=0.5;exitDx=0;exitDy=0;entryX=1;entryY=0.5;entryDx=0;entryDy=0;" edge="1" parent="1" source="utd212D--XBg9ADIICOr-8" target="utd212D--XBg9ADIICOr-5">
          <mxGeometry relative="1" as="geometry" />
        </mxCell>
        <mxCell id="utd212D--XBg9ADIICOr-14" style="rounded=0;orthogonalLoop=1;jettySize=auto;html=1;exitX=0;exitY=0.75;exitDx=0;exitDy=0;entryX=1;entryY=0.5;entryDx=0;entryDy=0;" edge="1" parent="1" source="utd212D--XBg9ADIICOr-8" target="utd212D--XBg9ADIICOr-6">
          <mxGeometry relative="1" as="geometry" />
        </mxCell>
        <mxCell id="utd212D--XBg9ADIICOr-8" value="D4.1" style="rounded=0;whiteSpace=wrap;html=1;" vertex="1" parent="1">
          <mxGeometry x="600" y="-650" width="120" height="30" as="geometry" />
        </mxCell>
        <mxCell id="utd212D--XBg9ADIICOr-27" style="rounded=0;orthogonalLoop=1;jettySize=auto;html=1;exitX=0;exitY=0.5;exitDx=0;exitDy=0;entryX=0.5;entryY=1;entryDx=0;entryDy=0;" edge="1" parent="1" source="utd212D--XBg9ADIICOr-9" target="utd212D--XBg9ADIICOr-1">
          <mxGeometry relative="1" as="geometry" />
        </mxCell>
        <mxCell id="utd212D--XBg9ADIICOr-9" value="D2.3" style="rounded=0;whiteSpace=wrap;html=1;" vertex="1" parent="1">
          <mxGeometry x="170" y="-330" width="120" height="30" as="geometry" />
        </mxCell>
        <mxCell id="utd212D--XBg9ADIICOr-15" style="rounded=0;orthogonalLoop=1;jettySize=auto;html=1;exitX=0;exitY=0.5;exitDx=0;exitDy=0;entryX=1;entryY=0.5;entryDx=0;entryDy=0;" edge="1" parent="1" source="utd212D--XBg9ADIICOr-10" target="utd212D--XBg9ADIICOr-7">
          <mxGeometry relative="1" as="geometry" />
        </mxCell>
        <mxCell id="utd212D--XBg9ADIICOr-10" value="D4.2" style="rounded=0;whiteSpace=wrap;html=1;" vertex="1" parent="1">
          <mxGeometry x="600" y="-330" width="120" height="30" as="geometry" />
        </mxCell>
      </root>
    </mxGraphModel>
  </diagram>
</mxfile>
